<svg xmlns:xlink="http://www.w3.org/1999/xlink" width="512" xmlns="http://www.w3.org/2000/svg" height="512" id="screenshot-f63c49d1-6640-805a-8002-0d71d0b547fe" viewBox="0 0 512 512" style="-webkit-print-color-adjust: exact;" fill="none" version="1.1"><g id="shape-f63c49d1-6640-805a-8002-0d71d0b547fe"><defs><clipPath class="frame-clip-def frame-clip" id="frame-clip-f63c49d1-6640-805a-8002-0d71d0b547fe-rumext-id-1"><rect rx="100" ry="100" x="0" y="0" width="512.0000000000002" height="512" transform="matrix(1.000000, 0.000000, 0.000000, 1.000000, 0.000000, 0.000000)" style="fill: rgb(255, 255, 255); fill-opacity: 1;"/></clipPath></defs><g clip-path="url(#frame-clip-f63c49d1-6640-805a-8002-0d71d0b547fe-rumext-id-1)"><clipPath class="frame-clip-def frame-clip" id="frame-clip-f63c49d1-6640-805a-8002-0d71d0b547fe-rumext-id-1"><rect rx="100" ry="100" x="0" y="0" width="512.0000000000002" height="512" transform="matrix(1.000000, 0.000000, 0.000000, 1.000000, 0.000000, 0.000000)" style="fill: rgb(255, 255, 255); fill-opacity: 1;"/></clipPath><g class="fills" id="fills-f63c49d1-6640-805a-8002-0d71d0b547fe"><rect width="512.0000000000002" height="512" class="frame-background" x="0" transform="matrix(1.000000, 0.000000, 0.000000, 1.000000, 0.000000, 0.000000)" style="fill: rgb(255, 255, 255); fill-opacity: 1;" ry="100" rx="100" y="0"/></g><g class="frame-children"><g id="shape-f63c49d1-6640-805a-8002-0d71d0b54804"><g class="fills" id="fills-f63c49d1-6640-805a-8002-0d71d0b54804"><path rx="0" ry="0" d="M112.376,452.557L233.096,240.526L305.218,283.102L419.364,142.437L374.290,116.571L296.255,220.600L217.309,180.330L52.401,430.221L112.376,452.557Z" style="fill: rgb(43, 173, 30); fill-opacity: 1;"/></g><g id="strokes-f63c49d1-6640-805a-8002-0d71d0b54804" class="strokes"><g class="stroke-shape"><path rx="0" ry="0" d="M112.376,452.557L233.096,240.526L305.218,283.102L419.364,142.437L374.290,116.571L296.255,220.600L217.309,180.330L52.401,430.221L112.376,452.557Z" style="fill: none; stroke-width: 2; stroke: rgb(43, 173, 30); stroke-opacity: 1;"/></g></g></g><g id="shape-f63c49d1-6640-805a-8002-0d71d0b54805"><g class="fills" id="fills-f63c49d1-6640-805a-8002-0d71d0b54805"><path rx="0" ry="0" d="M425.026,72.306C427.363,71.666,429.849,71.995,431.929,73.220C434.009,74.445,435.510,76.464,436.096,78.826L455.468,154.893C456.658,159.772,453.768,164.908,448.896,166.033C443.815,167.206,344.293,108.562,343.054,103.696C341.814,98.829,344.697,93.830,349.515,92.490L425.026,72.306Z" style="fill: rgb(43, 173, 30); fill-opacity: 1;"/></g></g></g></g></g></svg>